<?xml version="1.0" encoding="UTF-8" standalone="no"?>
<!-- Created with Inkscape (http://www.inkscape.org/) -->
<svg id="svg3256" xmlns:rdf="http://www.w3.org/1999/02/22-rdf-syntax-ns#" xmlns="http://www.w3.org/2000/svg" height="64px" width="64px" version="1.1" xmlns:cc="http://creativecommons.org/ns#" xmlns:dc="http://purl.org/dc/elements/1.1/">
 <metadata id="metadata3261">
  <rdf:RDF>
   <cc:Work rdf:about="">
    <dc:format>image/svg+xml</dc:format>
    <dc:type rdf:resource="http://purl.org/dc/dcmitype/StillImage"/>
    <dc:title/>
   </cc:Work>
  </rdf:RDF>
 </metadata>
 <g id="layer1">
  <g id="g6759" transform="matrix(.82420 0 0 .82420 .010988 .12926)">
   <g id="g4015">
    <g id="g4045" transform="matrix(.96593 .25882 -.25882 .96593 9.1489 -6.938)">
     <g id="g4664" transform="matrix(0 -.91558 .91558 0 14.68 68.416)">
      <g id="g2109" fill="#93a3cd" transform="matrix(0 -.36715 .36715 0 54.874 51.073)">
       <path id="path14" d="m115.63-118.13c-10.637 2.8501-21.496-3.1839-24.254-13.477-2.7576-10.291 3.6298-20.948 14.267-23.798 10.635-2.8496 21.497 3.1845 24.255 13.476 2.7582 10.294-3.6322 20.95-14.267 23.799"/>
       <path id="path16" d="m40.005-137.82c10.637-2.8501 21.496 3.1839 24.254 13.477 2.7576 10.291-3.6298 20.948-14.267 23.798-10.637 2.8501-21.496-3.1847-24.254-13.476-2.7582-10.294 3.6293-20.949 14.266-23.799"/>
       <path id="path18" d="m-15.643-82.957c-10.636 2.8498-21.497-3.1837-24.255-13.477-2.7576-10.291 3.6317-20.948 14.267-23.798 10.635-2.8496 21.496 3.1847 24.254 13.476 2.7581 10.294-3.6313 20.949-14.266 23.799"/>
       <path id="path20" d="m67.419-35.508c-10.637 2.8501-21.496-3.1848-24.254-13.477-2.7578-10.292 3.6296-20.948 14.266-23.798 10.637-2.8501 21.496 3.1846 24.254 13.477 2.7579 10.293-3.6293 20.949-14.266 23.799"/>
       <path id="path22" d="m133.06-53.095c-10.637 2.8501-21.496-3.1847-24.254-13.477-2.7578-10.292 3.6296-20.948 14.266-23.798 10.635-2.8496 21.497 3.1844 24.255 13.477 2.7579 10.293-3.6322 20.95-14.267 23.799"/>
       <path id="path24" d="m84.845 29.528c-10.636 2.85-21.496-3.184-24.254-13.478-2.758-10.292 3.63-20.947 14.267-23.798 10.636-2.85 21.496 3.1844 24.254 13.477s-3.63 20.948-14.267 23.799"/>
       <path id="path26" d="m150.48 11.94c-10.637 2.8501-21.496-3.1839-24.254-13.477-2.7578-10.292 3.6298-20.948 14.267-23.798 10.635-2.8496 21.497 3.1837 24.255 13.476 2.7582 10.294-3.6322 20.95-14.267 23.799"/>
       <path id="path28" d="m19.21 47.115c-10.636 2.849-21.497-3.184-24.255-13.478-2.7578-10.292 3.6316-20.948 14.267-23.798 10.635-2.8491 21.496 3.184 24.254 13.477 2.7582 10.294-3.6313 20.949-14.266 23.799"/>
       <path id="path30" d="m1.7838-17.921c-10.636 2.8498-21.497-3.1846-24.255-13.477-2.7578-10.292 3.6315-20.949 14.267-23.799 10.635-2.8496 21.496 3.1846 24.254 13.477 2.7579 10.293-3.6313 20.949-14.266 23.799"/>
      </g>
     </g>
    </g>
   </g>
  </g>
  <g id="g6332" transform="matrix(.78361 0 0 .78361 15.569 15.317)"></g>
 </g>
</svg>
